<mxfile host="65bd71144e">
    <diagram id="oyZoEUgCxtHn9GGXqUti" name="Page-1">
        <mxGraphModel dx="475" dy="787" grid="1" gridSize="10" guides="1" tooltips="1" connect="1" arrows="1" fold="1" page="1" pageScale="1" pageWidth="850" pageHeight="1100" math="0" shadow="0">
            <root>
                <mxCell id="0"/>
                <mxCell id="1" parent="0"/>
                <mxCell id="6" style="edgeStyle=none;html=1;exitX=0.5;exitY=1;exitDx=0;exitDy=0;exitPerimeter=0;entryX=0.5;entryY=0;entryDx=0;entryDy=0;" edge="1" parent="1" source="2" target="3">
                    <mxGeometry relative="1" as="geometry"/>
                </mxCell>
                <mxCell id="2" value="" style="html=1;dashed=0;whiteSpace=wrap;shape=mxgraph.dfd.loop" vertex="1" parent="1">
                    <mxGeometry x="250" y="140" width="80" height="30" as="geometry"/>
                </mxCell>
                <mxCell id="7" style="edgeStyle=none;html=1;exitX=0.5;exitY=1;exitDx=0;exitDy=0;entryX=0.5;entryY=0;entryDx=0;entryDy=0;" edge="1" parent="1" source="3" target="5">
                    <mxGeometry relative="1" as="geometry"/>
                </mxCell>
                <mxCell id="3" value="nome_produto -&amp;nbsp;&lt;br&gt;&quot;Digite o nome do produto&quot;" style="shape=manualInput;whiteSpace=wrap;html=1;dashed=0;size=15;" vertex="1" parent="1">
                    <mxGeometry x="225" y="190" width="130" height="70" as="geometry"/>
                </mxCell>
                <mxCell id="9" style="edgeStyle=none;html=1;exitX=0.5;exitY=1;exitDx=0;exitDy=0;entryX=0.5;entryY=0;entryDx=0;entryDy=0;" edge="1" parent="1" source="5" target="8">
                    <mxGeometry relative="1" as="geometry"/>
                </mxCell>
                <mxCell id="5" value="categoria_produto -&amp;nbsp;&lt;br&gt;&quot;Digite a categoria do produto&quot;" style="shape=manualInput;whiteSpace=wrap;html=1;dashed=0;size=15;" vertex="1" parent="1">
                    <mxGeometry x="225" y="280" width="130" height="70" as="geometry"/>
                </mxCell>
                <mxCell id="12" style="edgeStyle=none;html=1;exitX=0.5;exitY=1;exitDx=0;exitDy=0;entryX=0.5;entryY=0;entryDx=0;entryDy=0;" edge="1" parent="1" source="8" target="10">
                    <mxGeometry relative="1" as="geometry"/>
                </mxCell>
                <mxCell id="8" value="unidades -&amp;nbsp;&lt;br&gt;&quot;Digite a quantidade do produto&quot;" style="shape=manualInput;whiteSpace=wrap;html=1;dashed=0;size=15;" vertex="1" parent="1">
                    <mxGeometry x="225" y="370" width="130" height="70" as="geometry"/>
                </mxCell>
                <mxCell id="14" style="edgeStyle=none;html=1;exitX=1;exitY=0.5;exitDx=0;exitDy=0;" edge="1" parent="1" source="10" target="13">
                    <mxGeometry relative="1" as="geometry"/>
                </mxCell>
                <mxCell id="15" value="Sim" style="edgeLabel;html=1;align=center;verticalAlign=middle;resizable=0;points=[];" vertex="1" connectable="0" parent="14">
                    <mxGeometry x="-0.3474" y="1" relative="1" as="geometry">
                        <mxPoint x="-7" y="-9" as="offset"/>
                    </mxGeometry>
                </mxCell>
                <mxCell id="10" value="SE unidades &amp;lt;&amp;nbsp; estoque_min" style="shape=rhombus;html=1;dashed=0;whiteSpace=wrap;perimeter=rhombusPerimeter;" vertex="1" parent="1">
                    <mxGeometry x="197.5" y="475" width="185" height="150" as="geometry"/>
                </mxCell>
                <mxCell id="13" value="f&quot;Solicitar {produto} Ã  equipe de compras, temos apenas {unidades} em estoque&quot;" style="shape=display;whiteSpace=wrap;html=1;" vertex="1" parent="1">
                    <mxGeometry x="440" y="490" width="220" height="120" as="geometry"/>
                </mxCell>
                <mxCell id="23" value="fim" style="html=1;dashed=0;whiteSpace=wrap;shape=mxgraph.dfd.start" vertex="1" parent="1">
                    <mxGeometry x="225" y="760" width="130" height="60" as="geometry"/>
                </mxCell>
                <mxCell id="24" style="edgeStyle=none;html=1;exitX=0;exitY=0.5;exitDx=0;exitDy=0;entryX=0;entryY=0.5;entryDx=0;entryDy=0;entryPerimeter=0;" edge="1" parent="1" source="10" target="23">
                    <mxGeometry relative="1" as="geometry">
                        <Array as="points">
                            <mxPoint x="80" y="550"/>
                            <mxPoint x="80" y="790"/>
                        </Array>
                    </mxGeometry>
                </mxCell>
            </root>
        </mxGraphModel>
    </diagram>
</mxfile>